<svg id="Layer_1" data-name="Layer 1" xmlns="http://www.w3.org/2000/svg" viewBox="0 0 1099.16 301.03"><path d="M980.52-342.48c-17.68,0-35.35,0-53,0A35.8,35.8,0,0,0,902-332.46c-6.2,5.8-10.35,12.92-13.3,20.8-.28.77-.61,1.52-.91,2.25-.31-.1-.44-.1-.48-.15-.53-.91-1.05-1.83-1.58-2.75-8.61-14.83-21-24.43-38.06-27.66a87.72,87.72,0,0,0-10.36-1.12,48.76,48.76,0,0,0-8.37-.06c-8.86.95-16.66,4.69-23.91,9.67-13.26,9.09-23.74,20.85-32.52,34.21-.51.78-1,1.55-1.8,2.68a5.17,5.17,0,0,1-.25-.81l-.09-44a4.94,4.94,0,0,0-.11-.86c0-.08-.11-.15-.18-.22l-.17-.18H661.29c0,10.85,0,21.54,0,32.23s.08,21.23-.35,31.89a140,140,0,0,0-19.19-30.31,163,163,0,0,0-26.11-25l-109,197a17.8,17.8,0,0,0,1.71.91c7.83,3,15.58,6.27,23.53,8.92,8.72,2.91,17.72,4.68,27,4.21a111.31,111.31,0,0,0,35-7.18c29.8-11.64,51.48-32,65.28-60.85.5-1.05,1-2.1,1.52-3.15l.56.18v70.1c3.84.62,106.81.47,109.16-.16V-266.69H782.6c.24.5.51,1,.73,1.53a64.16,64.16,0,0,0,29.53,32.63c15.41,8.38,31.21,8.79,46.91.84,12.68-6.42,21.71-16.51,27.78-29.31.5-1.05,1-2.11,1.64-3.48.47.88.76,1.37,1,1.87a46.57,46.57,0,0,0,27.67,24.43,28.58,28.58,0,0,0,8.7,1.93c18.35.17,36.7.09,55.06.07a19.28,19.28,0,0,0,2.22-.24V-342.48Zm-329.69,149c-15,32.12-40,52.59-74.66,60.84a76.37,76.37,0,0,1-25.87,2c-8-.85-15.66-3.22-23.2-5.94-2.34-.85-4.65-1.78-7.18-2.75l98.48-178c1.69,1.54,3.19,2.86,4.64,4.25,12,11.46,21.94,24.4,28.6,39.67C663.3-246.63,663.08-219.74,650.83-193.44ZM761-130.79H670.75V-331.44H761ZM871.69-253.08a49,49,0,0,1-16.29,13.22c-11.1,5.57-22.48,6.12-33.85,1.21a54.68,54.68,0,0,1-29.12-28.86c-1.21-2.71-1.95-5.63-3-8.67H772.69c.34-1.21.54-2.29.94-3.3a76.66,76.66,0,0,1,8.34-15.2,111.57,111.57,0,0,1,26.64-28,50.48,50.48,0,0,1,17.29-8.53,27.35,27.35,0,0,1,11.46-.58c3,.52,6.21.36,9.2,1,16.73,3.62,28.27,13.68,34,29.6C886.85-283.65,883.3-267.49,871.69-253.08Zm102.95,7.64h-3c-14.48,0-29,0-43.44,0a19.7,19.7,0,0,1-5.37-.87c-15-4.45-24-14.63-27.55-29.58a55.34,55.34,0,0,1,5.05-39,36.72,36.72,0,0,1,11.5-13.55,25,25,0,0,1,14.65-4.68q22.72,0,45.46,0c.84,0,1.69.1,2.67.16Z" transform="translate(0 421.64)"/><path d="M650.83-193.44c-15,32.12-40,52.59-74.66,60.84a76.37,76.37,0,0,1-25.87,2c-8-.85-15.66-3.22-23.2-5.94-2.34-.85-4.65-1.78-7.18-2.75l98.48-178c1.69,1.54,3.19,2.86,4.64,4.25,12,11.46,21.94,24.4,28.6,39.67C663.3-246.63,663.08-219.74,650.83-193.44Z" transform="translate(0 421.64)"/><rect x="670.75" y="90.2" width="90.22" height="200.65"/><path d="M871.69-253.08a49,49,0,0,1-16.29,13.22c-11.1,5.57-22.48,6.12-33.85,1.21a54.68,54.68,0,0,1-29.12-28.86c-1.21-2.71-1.95-5.63-3-8.67H772.69c.34-1.21.54-2.29.94-3.3a76.66,76.66,0,0,1,8.34-15.2,111.57,111.57,0,0,1,26.64-28,50.48,50.48,0,0,1,17.29-8.53,27.35,27.35,0,0,1,11.46-.58c3,.52,6.21.36,9.2,1,16.73,3.62,28.27,13.68,34,29.6C886.85-283.65,883.3-267.49,871.69-253.08Z" transform="translate(0 421.64)"/><path d="M974.64-333v87.6h-3c-14.48,0-29,0-43.44,0a19.7,19.7,0,0,1-5.37-.87c-15-4.45-24-14.63-27.55-29.58a55.34,55.34,0,0,1,5.05-39,36.72,36.72,0,0,1,11.5-13.55,25,25,0,0,1,14.65-4.68q22.72,0,45.46,0C972.81-333.2,973.66-333.1,974.64-333Z" transform="translate(0 421.64)"/><path d="M289-331.86a161.93,161.93,0,0,0-28.5,27.94,126.62,126.62,0,0,0-19.27,34.27l-.61-.21V-421.19c-3.38-.68-103.42-.54-105.46.1v300.48H240.71v-78.06a6.56,6.56,0,0,1,1.72,2.73,117.7,117.7,0,0,0,46.43,57,112.31,112.31,0,0,0,48.86,17.56,74.43,74.43,0,0,0,24.77-.84c11.95-2.6,23.26-7,34.39-11.9a7.18,7.18,0,0,0,1.08-.75ZM231.27-129.92H144.44V-411.78c1.9-.62,82.55-.85,86.83-.2Zm152.44-9c-10.35,4.06-20.8,7.84-32,8.5a87.44,87.44,0,0,1-27.49-3.21A108,108,0,0,1,246.92-214c-5-22.76-1.76-44.5,8.86-65.16,7.33-14.26,17.41-26.38,29.28-37.06.29-.26.6-.47,1.26-1l98.26,177.65A4.82,4.82,0,0,1,383.71-138.87Z" transform="translate(0 421.64)"/><path d="M231.27-412v282.06H144.44V-411.78C146.34-412.4,227-412.63,231.27-412Z" transform="translate(0 421.64)"/><path d="M384.58-139.56a4.82,4.82,0,0,1-.87.69c-10.35,4.06-20.8,7.84-32,8.5a87.44,87.44,0,0,1-27.49-3.21A108,108,0,0,1,246.92-214c-5-22.76-1.76-44.5,8.86-65.16,7.33-14.26,17.41-26.38,29.28-37.06.29-.26.6-.47,1.26-1Z" transform="translate(0 421.64)"/><path d="M607.25-336.11c-8.42-3.37-16.78-6.88-25.28-10a56.75,56.75,0,0,0-18.7-3.55,102.07,102.07,0,0,0-39.41,6.84c-36,14.1-59.31,40-70.5,76.9-.25.84-.57,1.66-1.07,3.1-.52-1.68-.84-2.66-1.14-3.66-7.79-26.43-22.9-47.66-45.5-63.44a109.27,109.27,0,0,0-54.7-19.5,67.31,67.31,0,0,0-22.44,1.57c-11,2.83-21.29,7.43-31.6,12a3.32,3.32,0,0,0-.56.47L403-140.66c2.43-2,4.62-3.67,6.75-5.45s4.43-3.73,6.58-5.67,4.1-3.83,6.06-5.82,3.9-4,5.75-6.13,3.62-4.27,5.32-6.49,3.44-4.66,5-7.08,3-4.74,4.33-7.19,2.58-5,3.71-7.53,2.11-5.38,3.21-8.06c1-2.47,1.3-5.22,2.82-8.13A104.22,104.22,0,0,0,471.37-170c8.66,11.19,19,20.63,30.36,29.27L608.32-335.35A6.06,6.06,0,0,0,607.25-336.11ZM419.5-168.35c-4.17,4.53-8.73,8.7-13.53,13.46L309.62-330.82a16.27,16.27,0,0,1,1.77-1,121.39,121.39,0,0,1,22.75-7.54,51.85,51.85,0,0,1,13.84-.78c21.95,1.4,41.62,8.85,58.65,22.78,21.2,17.35,34.26,39.59,38.19,66.75C449.36-219.3,441-191.72,419.5-168.35Zm79.38,13.13c-1.65-1.42-3.12-2.64-4.53-3.92-10-9.12-18.63-19.29-25-31.32a94.09,94.09,0,0,1-10.27-35.34c-1.78-18.9,1.19-37,9.53-54,16-32.57,41.76-52.66,77.68-59.13,8.56-1.54,17.25-2.13,25.89-.07a128.89,128.89,0,0,1,19.45,6.55c1.06.43,2.1.89,3.47,1.48C563-272.23,531-213.86,498.88-155.22Z" transform="translate(0 421.64)"/><path d="M419.5-168.35c-4.17,4.53-8.73,8.7-13.53,13.46L309.62-330.82a16.27,16.27,0,0,1,1.77-1,121.39,121.39,0,0,1,22.75-7.54,51.85,51.85,0,0,1,13.84-.78c21.95,1.4,41.62,8.85,58.65,22.78,21.2,17.35,34.26,39.59,38.19,66.75C449.36-219.3,441-191.72,419.5-168.35Z" transform="translate(0 421.64)"/><path d="M595.15-331C563-272.23,531-213.86,498.88-155.22c-1.65-1.42-3.12-2.64-4.53-3.92-10-9.12-18.63-19.29-25-31.32a94.09,94.09,0,0,1-10.27-35.34c-1.78-18.9,1.19-37,9.53-54,16-32.57,41.76-52.66,77.68-59.13,8.56-1.54,17.25-2.13,25.89-.07a128.89,128.89,0,0,1,19.45,6.55C592.74-332.06,593.78-331.6,595.15-331Z" transform="translate(0 421.64)"/><path d="M127.42-349.8c-.57-.05-1.15-.09-1.73-.1a133.21,133.21,0,0,0-33.86,3.83C60.29-338,34.88-321,17.51-293.24,0-265.17-4.64-234.78,4.81-202.94c9.49,32,30.48,54.5,60.3,68.89,19.43,9.38,40.12,12.88,61.59,12.14a11.32,11.32,0,0,0,1.45-.27V-349.47A3.2,3.2,0,0,0,127.42-349.8Zm-8.59,218.65a112.94,112.94,0,0,1-19.57-1.79c-19.48-3.41-37.16-10.93-52.52-23.5-19.52-16-31.93-36.33-35.94-61.3C6.59-244,12-268.51,26.81-290.62,44-316.17,68.17-331.45,98.05-337.9c6.19-1.33,12.6-1.68,18.91-2.46a16.35,16.35,0,0,1,1.87,0Z" transform="translate(0 421.64)"/><path d="M118.83-340.37v209.22a112.94,112.94,0,0,1-19.57-1.79c-19.48-3.41-37.16-10.93-52.52-23.5-19.52-16-31.93-36.33-35.94-61.3C6.59-244,12-268.51,26.81-290.62,44-316.17,68.17-331.45,98.05-337.9c6.19-1.33,12.6-1.68,18.91-2.46A16.35,16.35,0,0,1,118.83-340.37Z" transform="translate(0 421.64)"/><path d="M1097.77-197.8c-2.72-14.17-9.16-26.39-20.28-35.83-9.5-8.06-20.57-12.85-33-13-17.18-.2-34.37.43-51.56.71-.56,0-1.11.13-1.81.21v124.52c1,.08,1.64.18,2.3.18q27,0,53.89,0a14.76,14.76,0,0,0,3.45-.36c17.26-4.2,30.82-13.55,39.65-29.12C1098.75-165.28,1101-181.19,1097.77-197.8Zm-16.38,44.28C1074-141.34,1063-134,1049.28-130.59a13.36,13.36,0,0,1-3.16.33q-21.58,0-43.17,0c-.76,0-1.52-.09-2.63-.16v-106.1c.89-.1,1.72-.26,2.54-.27,13.71-.24,27.43-.73,41.13-.58,9.72.1,18.5,3.66,26.14,9.69,9.9,7.81,15.68,18.19,18.27,30.38C1091.69-181.83,1089.64-167.11,1081.39-153.52Z" transform="translate(0 421.64)"/><path d="M1081.39-153.52C1074-141.34,1063-134,1049.28-130.59a13.36,13.36,0,0,1-3.16.33q-21.58,0-43.17,0c-.76,0-1.52-.09-2.63-.16v-106.1c.89-.1,1.72-.26,2.54-.27,13.71-.24,27.43-.73,41.13-.58,9.72.1,18.5,3.66,26.14,9.69,9.9,7.81,15.68,18.19,18.27,30.38C1091.69-181.83,1089.64-167.11,1081.39-153.52Z" transform="translate(0 421.64)"/><path d="M881.7-214.4c-.17,2.23-.37,4.33-.47,6.45-.13,2.89-.27,5.79-.27,8.68,0,10.55.82,21,3.77,31.22,5.27,18.25,16.36,31.44,33.92,39a93.36,93.36,0,0,0,26,6.6,183.05,183.05,0,0,0,33.84.5c1.11-.07,2.21-.29,3.32-.45v-92Zm90.83,83.14a16.19,16.19,0,0,1-2.17.39c-13.37.6-26.64-.1-39.6-3.75-10.82-3-20.39-8.2-27.6-17.11-5.59-6.92-8.81-14.92-10.7-23.49a110.46,110.46,0,0,1-2.11-28.22c0-.48.11-.95.19-1.65h82Z" transform="translate(0 421.64)"/><path d="M972.53-205.09v73.83a16.19,16.19,0,0,1-2.17.39c-13.37.6-26.64-.1-39.6-3.75-10.82-3-20.39-8.2-27.6-17.11-5.59-6.92-8.81-14.92-10.7-23.49a110.46,110.46,0,0,1-2.11-28.22c0-.48.11-.95.19-1.65Z" transform="translate(0 421.64)"/><path d="M1081.08-297.27c-6.64-21.39-20.51-35.42-42.41-41.08-12-3.1-24.22-3.56-36.52-2.84-3.55.2-7.08.55-10.7.84v82.73h94.85a9.28,9.28,0,0,0,.18-1.36C1086.19-272,1084.94-284.81,1081.08-297.27Zm-4.38,30.32h-76.05v-64.64a19.52,19.52,0,0,1,2.1-.35c11.42-.63,22.78-.28,33.9,2.67,11.66,3.1,21.45,9,28.3,19.23a60.79,60.79,0,0,1,9,22.1c1.25,6.22,1.86,12.57,2.73,18.86A16.42,16.42,0,0,1,1076.7-266.95Z" transform="translate(0 421.64)"/><path d="M1076.7-266.95h-76.05v-64.64a19.52,19.52,0,0,1,2.1-.35c11.42-.63,22.78-.28,33.9,2.67,11.66,3.1,21.45,9,28.3,19.23a60.79,60.79,0,0,1,9,22.1c1.25,6.22,1.86,12.57,2.73,18.86A16.42,16.42,0,0,1,1076.7-266.95Z" transform="translate(0 421.64)"/><path d="M79.79-398.25c-2.77-.35-6,.57-7.08-3.27a3,3,0,0,1,4.05-.62,16.73,16.73,0,0,0,4.67,1.22,12.32,12.32,0,0,0,2.42,0c1.06,1.82-.55,1.85-1.45,2.62q3.15,7.09,6.38,14.38c1.15.72,3.17-.69,4,1.76l-3.3,1.59A32.42,32.42,0,0,0,94.05-372a73.83,73.83,0,0,0,7,8.86c2.28,2.4,2.58,5,2,7.95-.1.57-.28,1.12-.43,1.72a4.6,4.6,0,0,1-5.55.45,13.24,13.24,0,0,1-5.69-5.12,41,41,0,0,1-5.2-17c-.17-2-.47-4-.72-6.14H74.73A17.5,17.5,0,0,0,76-377.34c2.14,3.42,4.46,6.73,6.74,10.07,1.73,2.53,3.55,5,5.26,7.57a7.65,7.65,0,0,1,.93,2.41c.41,1.64.48,3.17-1.14,4.4s-3.45,1.51-5.07.35c-2-1.44-4.22-2.93-5.56-4.92-4.09-6.07-6.83-12.71-6.74-20.24,0-1.15-.13-2.3-.2-3.42-1-.35-1.83-.52-2.18.69-.3,1-1,1.13-1.74.56a1.22,1.22,0,0,1-.17-2c1-1,2.23-1.83,3.69-3a17.8,17.8,0,0,0-.57-3c-.87-2.45-1.95-4.83-2.8-7.28s-2.14-3.64-4.85-3.6-3.52-.72-3.82-3a3.72,3.72,0,0,1,4.81-.24,14.8,14.8,0,0,0,6.84,2c1.93.21,2,.34,3.07,2.28l-4.75-.65c.37,1.15.53,1.9.83,2.59,1.25,2.81,2.55,5.59,3.8,8.4,1.07,2.37,2.49,4,5.49,3.51a55.19,55.19,0,0,1,6.55-.27C84.85-387.1,82.64-393.77,79.79-398.25Z" transform="translate(0 421.64)"/><path d="M121.16-388.29c-.79-.62-1.88-1.08-2.32-1.89-2-3.61-5.59-4.91-9-6.5a25.74,25.74,0,0,0-12-1.7A12.25,12.25,0,0,0,99-395.27,33,33,0,0,1,104.12-384a10.31,10.31,0,0,0,7.22-.21c.24-2.12-1-3.16-2.57-4.08s-1.58-1-.61-2.89a3,3,0,0,1,2.78,1.69,50.71,50.71,0,0,1,3,5.6c1.09,2.62,2.28,5.09,4.67,6.81.46.33,1.06.76,1.16,1.24.15.75.23,1.86-.2,2.31a1.71,1.71,0,0,1-2.57,0,11.84,11.84,0,0,1-1.32-1.89c-.44-.75-.76-1.56-1.21-2.3-2.12-3.44-4.23-4.06-8.64-2.34a50.24,50.24,0,0,0,2.29,4.86,18.86,18.86,0,0,0,5.56,6.17c3.94,2.6,8.83,1.8,11.34-1.72a9.54,9.54,0,0,0,.64-1.4c2.67,3.66,5.32,6.31,5.18,10.69-.14,4.56-2.15,7-6.22,8.84-5.1,2.26-12.13.2-15.82-4A28.71,28.71,0,0,1,102.24-371c-.58-3.21-1.11-6.41-1.71-9.92l-3.61,1.51a2.29,2.29,0,0,1,.77-3.47c2.06-1.45,2.26-3.11,1.2-5.25a22.13,22.13,0,0,1-.78-2.77,48.12,48.12,0,0,0-1.71-4.57,5,5,0,0,0-4.54-3.07,6.3,6.3,0,0,1-2.28-.25c-.59-.28-1.33-1-1.36-1.54a2.22,2.22,0,0,1,1.21-1.63,2.8,2.8,0,0,1,2.18.06,14,14,0,0,0,6.72,1.29c5.32,0,10.63.05,15.94,0,2,0,3.2.56,3.94,2.57.82,2.23,2.13,4.28,3.12,6.47a15.76,15.76,0,0,1,.72,2.84Z" transform="translate(0 421.64)"/><path d="M43.25-399a19.94,19.94,0,0,1-2.92.42,33.22,33.22,0,0,1-5.74-.25c-2.25-.38-2.88-1.33-3.16-3.76a3.35,3.35,0,0,1,4.42-.53,20.8,20.8,0,0,1,2,1.23,3.44,3.44,0,0,0,4,.27c.7-.39,1.89-.78,2.4-.46,2,1.29,4.11.88,6.18.74,4.12-.28,7,1.69,9.25,4.86.87,1.21,1.48,2.53.63,4.1-2.39,1.08-3.73.68-5.12-1.61a6.13,6.13,0,0,1-.5-1C53-399.5,52.07-400,47-398.58c.4.86.8,1.66,1.16,2.49a60.68,60.68,0,0,1,2.75,6.32c1.19,3.75,2.18,7.57,3.13,11.39a16.72,16.72,0,0,0,5.26,8.75c2.79,2.49,5.71,4.93,7.41,8.41,1.18,2.44,1.59,4.94.36,7.48-1.12,2.31-3.2,2.92-5.55,1.85-4.41-2-6.81-5.83-9.09-9.77-2.8-4.85-3.1-10.26-3.32-15.66-.12-2.7-.16-5.39-.22-8.09C48.79-390.56,46.79-394.93,43.25-399Z" transform="translate(0 421.64)"/></svg>