<svg id="Layer_1" data-name="Layer 1" xmlns="http://www.w3.org/2000/svg" viewBox="0 0 1100 300"><defs><style>.cls-1{fill:#fff;}</style></defs><path class="cls-1" d="M1084,278c-17.69,0-35.37,0-53.07,0a35.91,35.91,0,0,0-25.48,10c-6.2,5.78-10.35,12.88-13.31,20.73-.28.77-.61,1.51-.91,2.24-.31-.1-.44-.1-.48-.15-.53-.9-1.05-1.82-1.58-2.74-8.61-14.78-21.06-24.34-38.09-27.56a87.66,87.66,0,0,0-10.37-1.12,48.76,48.76,0,0,0-8.37-.06c-8.87,1-16.67,4.67-23.93,9.64-13.27,9.06-23.76,20.78-32.54,34.09-.52.78-1.05,1.55-1.81,2.67a5.17,5.17,0,0,1-.25-.81l-.09-43.88a5,5,0,0,0-.11-.85c0-.08-.11-.15-.18-.22l-.17-.18H764.48c0,10.81,0,21.47,0,32.12s.08,21.16-.35,31.78a139.62,139.62,0,0,0-19.2-30.21A163,163,0,0,0,718.8,288.6L609.72,485c.71.37,1.19.7,1.71.9,7.84,3,15.6,6.25,23.55,8.89,8.73,2.9,17.73,4.67,27,4.2a111.75,111.75,0,0,0,35.05-7.16c29.82-11.6,51.52-31.93,65.33-60.64.5-1.05,1-2.09,1.52-3.14l.56.18v69.86c3.84.62,106.89.47,109.24-.16V353.55h12.15c.24.49.51,1,.73,1.52a64.11,64.11,0,0,0,29.56,32.52c15.42,8.35,31.23,8.76,46.94.84,12.69-6.4,21.73-16.46,27.8-29.21l1.64-3.47c.47.88.76,1.36,1,1.86A46.55,46.55,0,0,0,1021.26,382a28.57,28.57,0,0,0,8.7,1.92c18.37.17,36.73.09,55.11.07a19.28,19.28,0,0,0,2.22-.24V278ZM754,426.55c-15,32-40,52.41-74.71,60.63a76.76,76.76,0,0,1-25.89,2c-8-.85-15.68-3.21-23.22-5.92-2.34-.85-4.66-1.77-7.19-2.74,32.91-59.24,65.65-118.19,98.56-177.42,1.69,1.53,3.19,2.85,4.64,4.23,12,11.43,22,24.32,28.62,39.54C766.49,373.54,766.27,400.34,754,426.55ZM864.24,489H774V289h90.29ZM975,367.11a48.93,48.93,0,0,1-16.3,13.17c-11.11,5.56-22.5,6.1-33.88,1.21a54.6,54.6,0,0,1-29.14-28.76c-1.21-2.7-2-5.61-3-8.64H876c.34-1.21.54-2.28.94-3.29a76.55,76.55,0,0,1,8.34-15.15,111.41,111.41,0,0,1,26.66-27.87,50.5,50.5,0,0,1,17.31-8.5,27.35,27.35,0,0,1,11.46-.58c3.05.52,6.22.36,9.21,1,16.74,3.6,28.29,13.63,34,29.49C990.21,336.64,986.66,352.75,975,367.11Zm103,7.61h-3c-14.49,0-29,0-43.48,0a20.08,20.08,0,0,1-5.37-.86c-15-4.44-24-14.58-27.57-29.48-3.19-13.51-1.34-26.56,5.05-38.91a36.77,36.77,0,0,1,11.51-13.5,25.16,25.16,0,0,1,14.66-4.67q22.74,0,45.5,0c.84,0,1.69.1,2.67.16Z" transform="translate(-102.68 -199.13)"/><path d="M754,426.55c-15,32-40,52.41-74.71,60.63a76.76,76.76,0,0,1-25.89,2c-8-.85-15.68-3.21-23.22-5.92-2.34-.85-4.66-1.77-7.19-2.74,32.91-59.24,65.65-118.19,98.56-177.42,1.69,1.53,3.19,2.85,4.64,4.23,12,11.43,22,24.32,28.62,39.54C766.49,373.54,766.27,400.34,754,426.55Z" transform="translate(-102.68 -199.13)"/><rect x="671.26" y="89.89" width="90.29" height="199.96"/><path d="M975,367.11a48.93,48.93,0,0,1-16.3,13.17c-11.11,5.56-22.5,6.1-33.88,1.21a54.6,54.6,0,0,1-29.14-28.76c-1.21-2.7-2-5.61-3-8.64H876c.34-1.21.54-2.28.94-3.29a76.55,76.55,0,0,1,8.34-15.15,111.41,111.41,0,0,1,26.66-27.87,50.5,50.5,0,0,1,17.31-8.5,27.35,27.35,0,0,1,11.46-.58c3.05.52,6.22.36,9.21,1,16.74,3.6,28.29,13.63,34,29.49C990.21,336.64,986.66,352.75,975,367.11Z" transform="translate(-102.68 -199.13)"/><path d="M1078.07,287.42v87.3h-3c-14.49,0-29,0-43.48,0a20.08,20.08,0,0,1-5.37-.86c-15-4.44-24-14.58-27.57-29.48-3.19-13.51-1.34-26.56,5.05-38.91a36.77,36.77,0,0,1,11.51-13.5,25.16,25.16,0,0,1,14.66-4.67q22.74,0,45.5,0C1076.24,287.26,1077.09,287.36,1078.07,287.42Z" transform="translate(-102.68 -199.13)"/><path class="cls-1" d="M391.94,288.6a161.93,161.93,0,0,0-28.53,27.84,126.18,126.18,0,0,0-19.28,34.16l-.61-.21V199.57c-3.38-.67-103.5-.53-105.54.1V499.13h105.6v-77.8a6.6,6.6,0,0,1,1.72,2.72,117.4,117.4,0,0,0,46.47,56.77,112.6,112.6,0,0,0,48.89,17.5,74.54,74.54,0,0,0,24.79-.84c12-2.59,23.28-6.94,34.42-11.86a7.81,7.81,0,0,0,1.08-.74ZM334.13,489.85H247.24V209c1.9-.62,82.61-.85,86.89-.2Zm152.56-8.92c-10.36,4.05-20.82,7.81-32.05,8.47a87.89,87.89,0,0,1-27.51-3.2c-38.48-10.14-68.78-41.51-77.34-80.15-5-22.69-1.76-44.35,8.87-64.94,7.34-14.21,17.42-26.29,29.3-36.93.29-.26.6-.47,1.26-1l98.34,177A4.82,4.82,0,0,1,486.69,480.93Z" transform="translate(-102.68 -199.13)"/><path d="M334.13,208.75v281.1H247.24V209C249.14,208.33,329.85,208.1,334.13,208.75Z" transform="translate(-102.68 -199.13)"/><path d="M487.56,480.24a4.82,4.82,0,0,1-.87.69c-10.36,4.05-20.82,7.81-32.05,8.47a87.89,87.89,0,0,1-27.51-3.2c-38.48-10.14-68.78-41.51-77.34-80.15-5-22.69-1.76-44.35,8.87-64.94,7.34-14.21,17.42-26.29,29.3-36.93.29-.26.6-.47,1.26-1Z" transform="translate(-102.68 -199.13)"/><path class="cls-1" d="M710.4,284.36c-8.43-3.36-16.79-6.85-25.3-10a57.1,57.1,0,0,0-18.71-3.54A102.33,102.33,0,0,0,627,277.68c-36.06,14.05-59.36,39.85-70.56,76.63-.25.84-.57,1.66-1.07,3.09-.52-1.67-.84-2.65-1.14-3.64-7.8-26.34-22.92-47.5-45.54-63.23A109.57,109.57,0,0,0,453.9,271.1a67.63,67.63,0,0,0-22.45,1.56c-11,2.82-21.31,7.41-31.63,12a3.32,3.32,0,0,0-.56.47q53.3,96.9,106.7,194c2.43-2,4.63-3.66,6.76-5.44s4.43-3.71,6.58-5.65,4.11-3.81,6.07-5.8,3.9-4,5.75-6.11,3.62-4.25,5.33-6.46,3.44-4.65,5-7.06,3-4.72,4.33-7.16,2.59-5,3.72-7.51,2.11-5.36,3.21-8c1-2.46,1.3-5.2,2.82-8.1a103.82,103.82,0,0,0,18.85,38.09c8.67,11.15,19,20.55,30.39,29.17l106.67-194A6.06,6.06,0,0,0,710.4,284.36ZM522.51,451.55c-4.18,4.51-8.74,8.67-13.55,13.41L412.54,289.64a16.27,16.27,0,0,1,1.77-1,122.25,122.25,0,0,1,22.77-7.52,52.34,52.34,0,0,1,13.85-.77c22,1.39,41.65,8.82,58.7,22.7,21.21,17.29,34.28,39.45,38.21,66.52C552.39,400.77,544.05,428.26,522.51,451.55ZM602,464.63c-1.66-1.41-3.13-2.63-4.54-3.9-10-9.09-18.64-19.23-25-31.21a93.62,93.62,0,0,1-10.27-35.22c-1.79-18.84,1.19-36.92,9.53-53.86,16-32.46,41.79-52.48,77.74-58.93,8.57-1.53,17.27-2.12,25.91-.07A130.18,130.18,0,0,1,694.82,288c1.06.43,2.1.89,3.47,1.48C666.08,348,634.09,406.2,602,464.63Z" transform="translate(-102.68 -199.13)"/><path d="M522.51,451.55c-4.18,4.51-8.74,8.67-13.55,13.41L412.54,289.64a16.27,16.27,0,0,1,1.77-1,122.25,122.25,0,0,1,22.77-7.52,52.34,52.34,0,0,1,13.85-.77c22,1.39,41.65,8.82,58.7,22.7,21.21,17.29,34.28,39.45,38.21,66.52C552.39,400.77,544.05,428.26,522.51,451.55Z" transform="translate(-102.68 -199.13)"/><path d="M698.29,289.45C666.08,348,634.09,406.2,602,464.63c-1.66-1.41-3.13-2.63-4.54-3.9-10-9.09-18.64-19.23-25-31.21a93.62,93.62,0,0,1-10.27-35.22c-1.79-18.84,1.19-36.92,9.53-53.86,16-32.46,41.79-52.48,77.74-58.93,8.57-1.53,17.27-2.12,25.91-.07A130.18,130.18,0,0,1,694.82,288C695.88,288.4,696.92,288.86,698.29,289.45Z" transform="translate(-102.68 -199.13)"/><path class="cls-1" d="M230.2,270.72c-.57-.05-1.15-.09-1.73-.1a133.89,133.89,0,0,0-33.89,3.82c-31.56,8.05-57,25-74.37,52.65-17.57,28-22.17,58.26-12.71,90C117,449,138,471.39,167.84,485.73c19.45,9.35,40.16,12.84,61.64,12.1a11.32,11.32,0,0,0,1.45-.27V271.05A3.2,3.2,0,0,0,230.2,270.72Zm-8.59,217.9A114.17,114.17,0,0,1,202,486.84c-19.49-3.4-37.19-10.89-52.56-23.42-19.53-15.93-31.95-36.21-36-61.09-4.21-26.18,1.19-50.6,16-72.63,17.15-25.46,41.39-40.69,71.29-47.12,6.19-1.33,12.61-1.67,18.92-2.45a16.51,16.51,0,0,1,1.88,0Z" transform="translate(-102.68 -199.13)"/><path d="M221.61,280.12v208.5A114.17,114.17,0,0,1,202,486.84c-19.49-3.4-37.19-10.89-52.56-23.42-19.53-15.93-31.95-36.21-36-61.09-4.21-26.18,1.19-50.6,16-72.63,17.15-25.46,41.39-40.69,71.29-47.12,6.19-1.33,12.61-1.67,18.92-2.45A16.51,16.51,0,0,1,221.61,280.12Z" transform="translate(-102.68 -199.13)"/><path class="cls-1" d="M1201.29,422.2c-2.72-14.12-9.16-26.3-20.29-35.71-9.51-8-20.59-12.8-33.06-12.94-17.19-.2-34.39.43-51.6.71a17.18,17.18,0,0,0-1.81.2v124.1c1,.08,1.64.18,2.3.18q27,0,53.94,0a14.76,14.76,0,0,0,3.45-.36c17.27-4.19,30.84-13.5,39.68-29C1202.27,454.61,1204.48,438.75,1201.29,422.2Zm-16.39,44.13c-7.39,12.14-18.42,19.42-32.13,22.85a13.39,13.39,0,0,1-3.17.33q-21.6,0-43.2,0c-.76,0-1.52-.09-2.63-.16V383.62c.89-.1,1.72-.26,2.54-.27,13.72-.24,27.45-.72,41.16-.57,9.73.1,18.52,3.64,26.16,9.65,9.91,7.79,15.69,18.13,18.29,30.28C1195.21,438.12,1193.16,452.79,1184.9,466.33Z" transform="translate(-102.68 -199.13)"/><path d="M1184.9,466.33c-7.39,12.14-18.42,19.42-32.13,22.85a13.39,13.39,0,0,1-3.17.33q-21.6,0-43.2,0c-.76,0-1.52-.09-2.63-.16V383.62c.89-.1,1.72-.26,2.54-.27,13.72-.24,27.45-.72,41.16-.57,9.73.1,18.52,3.64,26.16,9.65,9.91,7.79,15.69,18.13,18.29,30.28C1195.21,438.12,1193.16,452.79,1184.9,466.33Z" transform="translate(-102.68 -199.13)"/><path class="cls-1" d="M985.06,405.66c-.17,2.22-.37,4.31-.47,6.43-.13,2.88-.27,5.77-.27,8.65,0,10.51.82,20.93,3.77,31.11,5.27,18.19,16.37,31.33,33.95,38.87a93.7,93.7,0,0,0,26,6.57,183.27,183.27,0,0,0,33.86.5c1.11-.07,2.21-.29,3.33-.45V405.66Zm90.9,82.85a16.19,16.19,0,0,1-2.17.39c-13.38.6-26.66-.1-39.63-3.74-10.83-3-20.41-8.17-27.62-17.05-5.6-6.89-8.82-14.87-10.71-23.41a109.2,109.2,0,0,1-2.11-28.12c0-.48.11-.95.19-1.64H1076Z" transform="translate(-102.68 -199.13)"/><path d="M1076,414.94v73.57a16.19,16.19,0,0,1-2.17.39c-13.38.6-26.66-.1-39.63-3.74-10.83-3-20.41-8.17-27.62-17.05-5.6-6.89-8.82-14.87-10.71-23.41a109.2,109.2,0,0,1-2.11-28.12c0-.48.11-.95.19-1.64Z" transform="translate(-102.68 -199.13)"/><path class="cls-1" d="M1184.59,323.07c-6.64-21.32-20.52-35.3-42.44-40.94-12-3.09-24.24-3.55-36.55-2.83-3.55.2-7.08.55-10.71.84v82.45h94.93a9.28,9.28,0,0,0,.18-1.36C1189.7,348.29,1188.45,335.49,1184.59,323.07Zm-4.38,30.22H1104.1V288.87a19.52,19.52,0,0,1,2.1-.35c11.43-.63,22.8-.28,33.93,2.66,11.67,3.09,21.46,9,28.32,19.16a60.73,60.73,0,0,1,9,22c1.25,6.2,1.86,12.53,2.73,18.79A16.42,16.42,0,0,1,1180.21,353.29Z" transform="translate(-102.68 -199.13)"/><path d="M1180.21,353.29H1104.1V288.87a19.52,19.52,0,0,1,2.1-.35c11.43-.63,22.8-.28,33.93,2.66,11.67,3.09,21.46,9,28.32,19.16a60.73,60.73,0,0,1,9,22c1.25,6.2,1.86,12.53,2.73,18.79A16.42,16.42,0,0,1,1180.21,353.29Z" transform="translate(-102.68 -199.13)"/><path class="cls-1" d="M182.54,222.43c-2.78-.34-6,.58-7.09-3.25a3,3,0,0,1,4.05-.62,16.79,16.79,0,0,0,4.68,1.21,12.32,12.32,0,0,0,2.42,0c1.06,1.82-.55,1.85-1.45,2.62l6.39,14.33c1.14.71,3.16-.69,4.05,1.75l-3.31,1.59a32.28,32.28,0,0,0,4.53,8.54,74.21,74.21,0,0,0,7,8.82c2.28,2.4,2.58,5,2.05,7.93-.11.57-.28,1.12-.44,1.72a4.61,4.61,0,0,1-5.55.44,13.28,13.28,0,0,1-5.7-5.1,40.78,40.78,0,0,1-5.2-16.95c-.17-2-.47-4-.72-6.11H177.47a16.8,16.8,0,0,0,1.24,3.89c2.14,3.41,4.45,6.72,6.73,10,1.74,2.52,3.56,5,5.27,7.54a7.45,7.45,0,0,1,.93,2.4c.41,1.64.48,3.16-1.14,4.39s-3.45,1.51-5.07.35c-2-1.44-4.22-2.92-5.57-4.91-4.09-6.05-6.83-12.66-6.74-20.16,0-1.15-.13-2.29-.2-3.41-1-.35-1.83-.52-2.18.68s-1,1.14-1.75.56a1.21,1.21,0,0,1-.16-2c1-1,2.22-1.82,3.69-3a17.63,17.63,0,0,0-.58-3c-.86-2.45-1.94-4.81-2.79-7.26S167,221.91,164.3,222s-3.53-.72-3.83-3a3.72,3.72,0,0,1,4.81-.24,14.8,14.8,0,0,0,6.85,2c1.93.21,2,.34,3.07,2.28l-4.75-.65c.36,1.15.53,1.89.83,2.57,1.25,2.8,2.55,5.58,3.8,8.38,1.07,2.36,2.49,3.94,5.49,3.49a57.57,57.57,0,0,1,6.55-.26C187.6,233.55,185.39,226.9,182.54,222.43Z" transform="translate(-102.68 -199.13)"/><path class="cls-1" d="M223.94,232.36c-.79-.62-1.88-1.07-2.33-1.88-2-3.6-5.59-4.89-9-6.48a25.8,25.8,0,0,0-12-1.69,12.31,12.31,0,0,0,1.08,3.1,32.62,32.62,0,0,1,5.14,11.2,10.26,10.26,0,0,0,7.22-.21c.24-2.1-1-3.14-2.58-4.06s-1.58-1-.6-2.88a3,3,0,0,1,2.78,1.69,50.29,50.29,0,0,1,2.95,5.57c1.1,2.61,2.29,5.08,4.67,6.79.46.33,1.07.76,1.16,1.24.15.75.23,1.85-.2,2.3a1.71,1.71,0,0,1-2.57,0,12.16,12.16,0,0,1-1.31-1.88c-.45-.75-.77-1.56-1.22-2.29-2.12-3.43-4.23-4-8.64-2.34a44.85,44.85,0,0,0,2.29,4.85,18.86,18.86,0,0,0,5.56,6.14c3.95,2.6,8.84,1.8,11.35-1.7a10.36,10.36,0,0,0,.64-1.41c2.67,3.66,5.32,6.29,5.19,10.66-.14,4.54-2.15,7-6.23,8.81-5.1,2.26-12.14.2-15.84-4A28.67,28.67,0,0,1,205,249.6c-.57-3.19-1.11-6.39-1.71-9.88l-3.61,1.5a2.28,2.28,0,0,1,.77-3.46c2.06-1.44,2.26-3.1,1.2-5.22a22.47,22.47,0,0,1-.78-2.76,46.94,46.94,0,0,0-1.71-4.56,4.94,4.94,0,0,0-4.54-3.06,6.09,6.09,0,0,1-2.28-.26c-.6-.27-1.34-1-1.36-1.53a2.23,2.23,0,0,1,1.2-1.63,2.84,2.84,0,0,1,2.18.07,14.14,14.14,0,0,0,6.73,1.29c5.32,0,10.64,0,15.95,0,2,0,3.2.56,3.94,2.56.82,2.23,2.14,4.28,3.13,6.45a15.86,15.86,0,0,1,.72,2.83Z" transform="translate(-102.68 -199.13)"/><path class="cls-1" d="M146,221.69a23,23,0,0,1-2.93.42,34.34,34.34,0,0,1-5.74-.25c-2.25-.38-2.88-1.33-3.17-3.75,1.32-1.39,2.84-1.37,4.44-.52a18.85,18.85,0,0,1,2,1.22,3.44,3.44,0,0,0,4,.27c.69-.39,1.89-.78,2.4-.46,2,1.28,4.11.87,6.19.74,4.12-.28,7,1.68,9.25,4.84.87,1.21,1.48,2.52.63,4.09-2.39,1.07-3.73.67-5.12-1.61a5.45,5.45,0,0,1-.5-1c-1.68-4.46-2.62-4.92-7.68-3.54.4.85.8,1.66,1.16,2.47a61.3,61.3,0,0,1,2.75,6.3c1.19,3.74,2.19,7.55,3.14,11.36A16.65,16.65,0,0,0,162,251c2.79,2.48,5.72,4.91,7.41,8.38,1.19,2.43,1.6,4.92.37,7.46-1.12,2.3-3.2,2.9-5.56,1.84-4.41-2-6.81-5.81-9.09-9.74-2.8-4.83-3.11-10.22-3.33-15.61-.12-2.68-.16-5.37-.21-8.06C151.52,230.1,149.51,225.74,146,221.69Z" transform="translate(-102.68 -199.13)"/></svg>