<svg id="Layer_1" data-name="Layer 1" xmlns="http://www.w3.org/2000/svg" viewBox="0 0 1099.16 301.03"><defs><style>.cls-1{fill:#fff;}</style></defs><path d="M770.74-294.59c.76-1.13,1.29-1.9,1.8-2.68,8.78-13.36,19.26-25.12,32.52-34.21,7.25-5,15.05-8.72,23.91-9.67a48.76,48.76,0,0,1,8.37.06A87.72,87.72,0,0,1,847.7-340c17,3.23,29.45,12.83,38.06,27.66.53.92,1,1.84,1.58,2.75,0,.05.17.05.48.15.3-.73.63-1.48.91-2.25,2.95-7.88,7.1-15,13.3-20.8a35.8,35.8,0,0,1,25.46-10.05c17.68.07,35.35,0,53,0h3.33v106.06a19.28,19.28,0,0,1-2.22.24c-18.36,0-36.71.1-55.06-.07a28.58,28.58,0,0,1-8.7-1.93,46.57,46.57,0,0,1-27.67-24.43c-.25-.5-.54-1-1-1.87-.64,1.37-1.14,2.43-1.64,3.48-6.07,12.8-15.1,22.89-27.78,29.31-15.7,7.95-31.5,7.54-46.91-.84a64.16,64.16,0,0,1-29.53-32.63c-.22-.53-.49-1-.73-1.53H770.46v144.85c-2.35.63-105.32.78-109.16.16v-70.1l-.56-.18c-.51,1.05-1,2.1-1.52,3.15C645.42-160,623.74-139.6,593.94-128a111.31,111.31,0,0,1-35,7.18c-9.31.47-18.31-1.3-27-4.21-7.95-2.65-15.7-5.91-23.53-8.92a17.8,17.8,0,0,1-1.71-.91l109-197a163,163,0,0,1,26.11,25,140,140,0,0,1,19.19,30.31c.43-10.66.34-21.28.35-31.89s0-21.38,0-32.23H769.94l.17.18c.07.07.16.14.18.22a4.94,4.94,0,0,1,.11.86l.09,44A5.17,5.17,0,0,0,770.74-294.59Zm-100-36.85v200.65H761V-331.44ZM519.92-139.26c2.53,1,4.84,1.9,7.18,2.75,7.54,2.72,15.2,5.09,23.2,5.94a76.37,76.37,0,0,0,25.87-2c34.66-8.25,59.69-28.72,74.66-60.84,12.25-26.3,12.47-53.19.81-79.93C645-288.64,635-301.58,623-313c-1.45-1.39-2.95-2.71-4.64-4.25ZM789.45-276.18c1,3,1.77,6,3,8.67a54.68,54.68,0,0,0,29.12,28.86c11.37,4.91,22.75,4.36,33.85-1.21a49,49,0,0,0,16.29-13.22c11.61-14.41,15.16-30.57,8.86-48.07-5.72-15.92-17.26-26-34-29.6-3-.65-6.16-.49-9.2-1a27.35,27.35,0,0,0-11.46.58,50.48,50.48,0,0,0-17.29,8.53,111.57,111.57,0,0,0-26.64,28,76.66,76.66,0,0,0-8.34,15.2c-.4,1-.6,2.09-.94,3.3ZM974.64-333c-1-.06-1.83-.16-2.67-.16q-22.72,0-45.46,0a25,25,0,0,0-14.65,4.68A36.72,36.72,0,0,0,900.36-315a55.34,55.34,0,0,0-5.05,39c3.53,14.95,12.57,25.13,27.55,29.58a19.7,19.7,0,0,0,5.37.87c14.48.07,29,0,43.44,0h3Z" transform="translate(0 421.64)"/><path d="M289-331.86,398-134.91a7.18,7.18,0,0,1-1.08.75c-11.13,4.93-22.44,9.3-34.39,11.9a74.43,74.43,0,0,1-24.77.84A112.31,112.31,0,0,1,288.86-139a117.7,117.7,0,0,1-46.43-57,6.56,6.56,0,0,0-1.72-2.73v78.06H135.19V-421.09c2-.64,102.08-.78,105.46-.1v151.33l.61.21a126.62,126.62,0,0,1,19.27-34.27A161.93,161.93,0,0,1,289-331.86ZM231.27-129.92V-412c-4.28-.65-84.93-.42-86.83.2v281.86Zm55-187.29c-.66.51-1,.72-1.26,1-11.87,10.68-21.95,22.8-29.28,37.06-10.62,20.66-13.88,42.4-8.86,65.16a108,108,0,0,0,77.28,80.43,87.44,87.44,0,0,0,27.49,3.21c11.22-.66,21.67-4.44,32-8.5a4.82,4.82,0,0,0,.87-.69Z" transform="translate(0 421.64)"/><path d="M296.35-335.34a3.32,3.32,0,0,1,.56-.47c10.31-4.61,20.61-9.21,31.6-12A67.31,67.31,0,0,1,351-349.42a109.27,109.27,0,0,1,54.7,19.5c22.6,15.78,37.71,37,45.5,63.44.3,1,.62,2,1.14,3.66.5-1.44.82-2.26,1.07-3.1,11.19-36.91,34.47-62.8,70.5-76.9a102.07,102.07,0,0,1,39.41-6.84,56.75,56.75,0,0,1,18.7,3.55c8.5,3.12,16.86,6.63,25.28,10a6.06,6.06,0,0,1,1.07.76L501.73-140.72C490.34-149.36,480-158.8,471.37-170a104.22,104.22,0,0,1-18.84-38.22c-1.52,2.91-1.81,5.66-2.82,8.13-1.1,2.68-2,5.42-3.21,8.06s-2.37,5.07-3.71,7.53-2.79,4.85-4.33,7.19-3.27,4.78-5,7.08-3.48,4.39-5.32,6.49-3.78,4.14-5.75,6.13-4,3.93-6.06,5.82-4.36,3.82-6.58,5.67-4.32,3.49-6.75,5.45ZM406-154.89c4.8-4.76,9.36-8.93,13.53-13.46,21.53-23.37,29.86-51,25.32-82.25-3.93-27.16-17-49.4-38.19-66.75-17-13.93-36.7-21.38-58.65-22.78a51.85,51.85,0,0,0-13.84.78,121.39,121.39,0,0,0-22.75,7.54,16.27,16.27,0,0,0-1.77,1ZM595.15-331c-1.37-.59-2.41-1.05-3.47-1.48A128.89,128.89,0,0,0,572.23-339c-8.64-2.06-17.33-1.47-25.89.07-35.92,6.47-61.7,26.56-77.68,59.13-8.34,17-11.31,35.14-9.53,54a94.09,94.09,0,0,0,10.27,35.34c6.32,12,15,22.2,25,31.32,1.41,1.28,2.88,2.5,4.53,3.92C531-213.86,563-272.23,595.15-331Z" transform="translate(0 421.64)"/><path d="M128.15-349.47v227.29a11.32,11.32,0,0,1-1.45.27c-21.47.74-42.16-2.76-61.59-12.14-29.82-14.39-50.81-36.89-60.3-68.89-9.45-31.84-4.85-62.23,12.7-90.3C34.88-321,60.29-338,91.83-346.07a133.21,133.21,0,0,1,33.86-3.83c.58,0,1.16,0,1.73.1A3.2,3.2,0,0,1,128.15-349.47Zm-9.32,218.32V-340.37a16.35,16.35,0,0,0-1.87,0c-6.31.78-12.72,1.13-18.91,2.46-29.88,6.45-54.1,21.73-71.24,47.28C12-268.51,6.59-244,10.8-217.74c4,25,16.42,45.32,35.94,61.3,15.36,12.57,33,20.09,52.52,23.5A112.94,112.94,0,0,0,118.83-131.15Z" transform="translate(0 421.64)"/><path d="M991.09-121.18V-245.7c.7-.08,1.25-.2,1.81-.21,17.19-.28,34.38-.91,51.56-.71,12.46.14,23.53,4.93,33,13,11.12,9.44,17.56,21.66,20.28,35.83,3.18,16.61,1,32.52-7.39,47.31-8.83,15.57-22.39,24.92-39.65,29.12a14.76,14.76,0,0,1-3.45.36q-26.94,0-53.89,0C992.73-121,992.06-121.1,991.09-121.18Zm9.23-9.23c1.11.07,1.87.16,2.63.16q21.59,0,43.17,0a13.36,13.36,0,0,0,3.16-.33c13.7-3.44,24.72-10.75,32.11-22.93,8.25-13.59,10.3-28.31,7-43.77-2.59-12.19-8.37-22.57-18.27-30.38-7.64-6-16.42-9.59-26.14-9.69-13.7-.15-27.42.34-41.13.58-.82,0-1.65.17-2.54.27Z" transform="translate(0 421.64)"/><path d="M981.8-214.4v92c-1.11.16-2.21.38-3.32.45a183.05,183.05,0,0,1-33.84-.5,93.36,93.36,0,0,1-26-6.6c-17.56-7.56-28.65-20.75-33.92-39-3-10.21-3.78-20.67-3.77-31.22,0-2.89.14-5.79.27-8.68.1-2.12.3-4.22.47-6.45Zm-91.26,9.31c-.08.7-.17,1.17-.19,1.65a110.46,110.46,0,0,0,2.11,28.22c1.89,8.57,5.11,16.57,10.7,23.49,7.21,8.91,16.78,14.06,27.6,17.11,13,3.65,26.23,4.35,39.6,3.75a16.19,16.19,0,0,0,2.17-.39v-73.83Z" transform="translate(0 421.64)"/><path d="M1086.3-257.62H991.45v-82.73c3.62-.29,7.15-.64,10.7-.84,12.3-.72,24.52-.26,36.52,2.84,21.9,5.66,35.77,19.69,42.41,41.08,3.86,12.46,5.11,25.31,5.4,38.29A9.28,9.28,0,0,1,1086.3-257.62Zm-85.65-74v64.64h76.05a16.42,16.42,0,0,0,0-2.13c-.87-6.29-1.48-12.64-2.73-18.86a60.79,60.79,0,0,0-9-22.1c-6.85-10.22-16.64-16.13-28.3-19.23-11.12-3-22.48-3.3-33.9-2.67A19.52,19.52,0,0,0,1000.65-331.59Z" transform="translate(0 421.64)"/><path d="M79.79-398.25c-2.77-.35-6,.57-7.08-3.27a3,3,0,0,1,4.05-.62,16.73,16.73,0,0,0,4.67,1.22,12.32,12.32,0,0,0,2.42,0c1.06,1.82-.55,1.85-1.45,2.62q3.15,7.09,6.38,14.38c1.15.72,3.17-.69,4,1.76l-3.3,1.59A32.42,32.42,0,0,0,94.05-372a73.83,73.83,0,0,0,7,8.86c2.28,2.4,2.58,5,2,7.95-.1.57-.28,1.12-.43,1.72a4.6,4.6,0,0,1-5.55.45,13.24,13.24,0,0,1-5.69-5.12,41,41,0,0,1-5.2-17c-.17-2-.47-4-.72-6.14H74.73A17.5,17.5,0,0,0,76-377.34c2.14,3.42,4.46,6.73,6.74,10.07,1.73,2.53,3.55,5,5.26,7.57a7.65,7.65,0,0,1,.93,2.41c.41,1.64.48,3.17-1.14,4.4s-3.45,1.51-5.07.35c-2-1.44-4.22-2.93-5.56-4.92-4.09-6.07-6.83-12.71-6.74-20.24,0-1.15-.13-2.3-.2-3.42-1-.35-1.83-.52-2.18.69-.3,1-1,1.13-1.74.56a1.22,1.22,0,0,1-.17-2c1-1,2.23-1.83,3.69-3a17.8,17.8,0,0,0-.57-3c-.87-2.45-1.95-4.83-2.8-7.28s-2.14-3.64-4.85-3.6-3.52-.72-3.82-3a3.72,3.72,0,0,1,4.81-.24,14.8,14.8,0,0,0,6.84,2c1.93.21,2,.34,3.07,2.28l-4.75-.65c.37,1.15.53,1.9.83,2.59,1.25,2.81,2.55,5.59,3.8,8.4,1.07,2.37,2.49,4,5.49,3.51a55.19,55.19,0,0,1,6.55-.27C84.85-387.1,82.64-393.77,79.79-398.25Z" transform="translate(0 421.64)"/><path d="M121.16-388.29c-.79-.62-1.88-1.08-2.32-1.89-2-3.61-5.59-4.91-9-6.5a25.74,25.74,0,0,0-12-1.7A12.25,12.25,0,0,0,99-395.27,33,33,0,0,1,104.12-384a10.31,10.31,0,0,0,7.22-.21c.24-2.12-1-3.16-2.57-4.08s-1.58-1-.61-2.89a3,3,0,0,1,2.78,1.69,50.71,50.71,0,0,1,3,5.6c1.09,2.62,2.28,5.09,4.67,6.81.46.33,1.06.76,1.16,1.24.15.75.23,1.86-.2,2.31a1.71,1.71,0,0,1-2.57,0,11.84,11.84,0,0,1-1.32-1.89c-.44-.75-.76-1.56-1.21-2.3-2.12-3.44-4.23-4.06-8.64-2.34a50.24,50.24,0,0,0,2.29,4.86,18.86,18.86,0,0,0,5.56,6.17c3.94,2.6,8.83,1.8,11.34-1.72a9.54,9.54,0,0,0,.64-1.4c2.67,3.66,5.32,6.31,5.18,10.69-.14,4.56-2.15,7-6.22,8.84-5.1,2.26-12.13.2-15.82-4A28.71,28.71,0,0,1,102.24-371c-.58-3.21-1.11-6.41-1.71-9.92l-3.61,1.51a2.29,2.29,0,0,1,.77-3.47c2.06-1.45,2.26-3.11,1.2-5.25a22.13,22.13,0,0,1-.78-2.77,48.12,48.12,0,0,0-1.71-4.57,5,5,0,0,0-4.54-3.07,6.3,6.3,0,0,1-2.28-.25c-.59-.28-1.33-1-1.36-1.54a2.22,2.22,0,0,1,1.21-1.63,2.8,2.8,0,0,1,2.18.06,14,14,0,0,0,6.72,1.29c5.32,0,10.63.05,15.94,0,2,0,3.2.56,3.94,2.57.82,2.23,2.13,4.28,3.12,6.47a15.76,15.76,0,0,1,.72,2.84Z" transform="translate(0 421.64)"/><path d="M43.25-399a19.94,19.94,0,0,1-2.92.42,33.22,33.22,0,0,1-5.74-.25c-2.25-.38-2.88-1.33-3.16-3.76a3.35,3.35,0,0,1,4.42-.53,20.8,20.8,0,0,1,2,1.23,3.44,3.44,0,0,0,4,.27c.7-.39,1.89-.78,2.4-.46,2,1.29,4.11.88,6.18.74,4.12-.28,7,1.69,9.25,4.86.87,1.21,1.48,2.53.63,4.1-2.39,1.08-3.73.68-5.12-1.61a6.13,6.13,0,0,1-.5-1C53-399.5,52.07-400,47-398.58c.4.86.8,1.66,1.16,2.49a60.68,60.68,0,0,1,2.75,6.32c1.19,3.75,2.18,7.57,3.13,11.39a16.72,16.72,0,0,0,5.26,8.75c2.79,2.49,5.71,4.93,7.41,8.41,1.18,2.44,1.59,4.94.36,7.48-1.12,2.31-3.2,2.92-5.55,1.85-4.41-2-6.81-5.83-9.09-9.77-2.8-4.85-3.1-10.26-3.32-15.66-.12-2.7-.16-5.39-.22-8.09C48.79-390.56,46.79-394.93,43.25-399Z" transform="translate(0 421.64)"/><path class="cls-1" d="M670.75-331.44H761v200.65H670.75Z" transform="translate(0 421.64)"/><path class="cls-1" d="M519.92-139.26l98.48-178c1.69,1.54,3.19,2.86,4.64,4.25,12,11.46,21.94,24.4,28.6,39.67,11.66,26.74,11.44,53.63-.81,79.93-15,32.12-40,52.59-74.66,60.84a76.37,76.37,0,0,1-25.87,2c-8-.85-15.66-3.22-23.2-5.94C524.76-137.36,522.45-138.29,519.92-139.26Z" transform="translate(0 421.64)"/><path class="cls-1" d="M789.45-276.18H772.69c.34-1.21.54-2.29.94-3.3a76.66,76.66,0,0,1,8.34-15.2,111.57,111.57,0,0,1,26.64-28,50.48,50.48,0,0,1,17.29-8.53,27.35,27.35,0,0,1,11.46-.58c3,.52,6.21.36,9.2,1,16.73,3.62,28.27,13.68,34,29.6,6.3,17.5,2.75,33.66-8.86,48.07a49,49,0,0,1-16.29,13.22c-11.1,5.57-22.48,6.12-33.85,1.21a54.68,54.68,0,0,1-29.12-28.86C791.22-270.22,790.48-273.14,789.45-276.18Z" transform="translate(0 421.64)"/><path class="cls-1" d="M974.64-333v87.6h-3c-14.48,0-29,0-43.44,0a19.7,19.7,0,0,1-5.37-.87c-15-4.45-24-14.63-27.55-29.58a55.34,55.34,0,0,1,5.05-39,36.72,36.72,0,0,1,11.5-13.55,25,25,0,0,1,14.65-4.68q22.72,0,45.46,0C972.81-333.2,973.66-333.1,974.64-333Z" transform="translate(0 421.64)"/><path class="cls-1" d="M231.27-129.92H144.44V-411.78c1.9-.62,82.55-.85,86.83-.2Z" transform="translate(0 421.64)"/><path class="cls-1" d="M286.32-317.21l98.26,177.65a4.82,4.82,0,0,1-.87.69c-10.35,4.06-20.8,7.84-32,8.5a87.44,87.44,0,0,1-27.49-3.21A108,108,0,0,1,246.92-214c-5-22.76-1.76-44.5,8.86-65.16,7.33-14.26,17.41-26.38,29.28-37.06C285.35-316.49,285.66-316.7,286.32-317.21Z" transform="translate(0 421.64)"/><path class="cls-1" d="M406-154.89,309.62-330.82a16.27,16.27,0,0,1,1.77-1,121.39,121.39,0,0,1,22.75-7.54,51.85,51.85,0,0,1,13.84-.78c21.95,1.4,41.62,8.85,58.65,22.78,21.2,17.35,34.26,39.59,38.19,66.75,4.54,31.3-3.79,58.88-25.32,82.25C415.33-163.82,410.77-159.65,406-154.89Z" transform="translate(0 421.64)"/><path class="cls-1" d="M595.15-331C563-272.23,531-213.86,498.88-155.22c-1.65-1.42-3.12-2.64-4.53-3.92-10-9.12-18.63-19.29-25-31.32a94.09,94.09,0,0,1-10.27-35.34c-1.78-18.9,1.19-37,9.53-54,16-32.57,41.76-52.66,77.68-59.13,8.56-1.54,17.25-2.13,25.89-.07a128.89,128.89,0,0,1,19.45,6.55C592.74-332.06,593.78-331.6,595.15-331Z" transform="translate(0 421.64)"/><path class="cls-1" d="M118.83-131.15a112.94,112.94,0,0,1-19.57-1.79c-19.48-3.41-37.16-10.93-52.52-23.5-19.52-16-31.93-36.33-35.94-61.3C6.59-244,12-268.51,26.81-290.62,44-316.17,68.17-331.45,98.05-337.9c6.19-1.33,12.6-1.68,18.91-2.46a16.35,16.35,0,0,1,1.87,0Z" transform="translate(0 421.64)"/><path class="cls-1" d="M1000.32-130.41v-106.1c.89-.1,1.72-.26,2.54-.27,13.71-.24,27.43-.73,41.13-.58,9.72.1,18.5,3.66,26.14,9.69,9.9,7.81,15.68,18.19,18.27,30.38,3.29,15.46,1.24,30.18-7,43.77C1074-141.34,1063-134,1049.28-130.59a13.36,13.36,0,0,1-3.16.33q-21.58,0-43.17,0C1002.19-130.25,1001.43-130.34,1000.32-130.41Z" transform="translate(0 421.64)"/><path class="cls-1" d="M890.54-205.09h82v73.83a16.19,16.19,0,0,1-2.17.39c-13.37.6-26.64-.1-39.6-3.75-10.82-3-20.39-8.2-27.6-17.11-5.59-6.92-8.81-14.92-10.7-23.49a110.46,110.46,0,0,1-2.11-28.22C890.37-203.92,890.46-204.39,890.54-205.09Z" transform="translate(0 421.64)"/><path class="cls-1" d="M1000.65-331.59a19.52,19.52,0,0,1,2.1-.35c11.42-.63,22.78-.28,33.9,2.67,11.66,3.1,21.45,9,28.3,19.23a60.79,60.79,0,0,1,9,22.1c1.25,6.22,1.86,12.57,2.73,18.86a16.42,16.42,0,0,1,0,2.13h-76.05Z" transform="translate(0 421.64)"/></svg>