<svg id="Layer_1" data-name="Layer 1" xmlns="http://www.w3.org/2000/svg" viewBox="0 0 202.41 214.92"><defs><style>.cls-1{fill:#f7d05b;}</style></defs><rect class="cls-1" width="202.41" height="214.92" rx="14.09"/><path d="M581.89,384.21q0-49.44,0-98.86c0-7.25,1.07-8.34,8.44-8.34q93.06,0,186.12,0c6.43,0,7.84,1.44,7.84,8q0,99.36,0,198.72c0,6.78-1.44,8.15-8.76,8.15q-93.07,0-186.13,0c-6,0-7.49-1.56-7.5-7.85Q581.87,434.14,581.89,384.21ZM773.56,481v-7.18c0-60.08-.08-120.15.13-180.23,0-5.3-1.56-6.26-6.44-6.24-56,.16-112.1.1-168.15.11-6.56,0-6.57,0-6.57,6.55V481Z" transform="translate(-581.88 -277)"/><path d="M742.61,384.53q0,38.21,0,76.41c0,7.7-1.26,9-9,9q-60.14,0-120.27,0c-8.13,0-9.41-1.33-9.41-9.68q0-75.9,0-151.8c0-8.28,1.24-9.51,9.55-9.51H733.28c8,0,9.32,1.28,9.32,9.18Q742.6,346.34,742.61,384.53ZM615.14,458.72c2,.11,3.81.29,5.58.29,34.94,0,69.87-.1,104.81.13,5.07,0,6.4-1.38,6.38-6.39q-.28-68.42,0-136.83c0-5.35-1.87-6.25-6.58-6.23-34.94.17-69.87.11-104.81.13-1.75,0-3.5.2-5.39.32Z" transform="translate(-581.88 -277)"/><path d="M758,394.74a7.79,7.79,0,0,1-7.7-7.56,7.71,7.71,0,0,1,7.83-7.9,7.73,7.73,0,0,1-.13,15.46Z" transform="translate(-581.88 -277)"/><path d="M703.69,384.78q0,27.21,0,54.42c0,7.36-1.29,8.6-8.81,8.6l-59.37,0c-7.92,0-9.14-1.1-9.14-8.79q0-54.41,0-108.83c0-8,1.21-9.15,9.34-9.15q29.69,0,59.37,0c7.4,0,8.64,1.31,8.64,8.81Q703.71,357.32,703.69,384.78Zm-11,52V332.09H637.32V436.77Z" transform="translate(-581.88 -277)"/><path d="M726.75,387.27a7.84,7.84,0,0,1-7.85,7.43,7.75,7.75,0,0,1-7.44-7.77,7.58,7.58,0,0,1,7.51-7.67A7.78,7.78,0,0,1,726.75,387.27Z" transform="translate(-581.88 -277)"/><path d="M680.26,379.27a7.73,7.73,0,0,1,0,15.46,7.73,7.73,0,1,1,0-15.46Z" transform="translate(-581.88 -277)"/></svg>